# xmcd
#
# Track frame offsets: 
#        207
#        13195
#        25467
#        35115
#        50460
#        67662
#        76247
#        85920
#        98295
#        108515
#        131337
#        146377
#        164437
#        185900
#
# Disc length: 2651 seconds
#
# Revision: 0
# Processed by: cddbd v1.5.1PL0 Copyright (c) Steve Scherf et al.
# Submitted via: ExactAudioCopy v0.95b2
#
DISCID=b20a590e
DTITLE=Various Artist - Texas Guitar Greats Vol 2
DYEAR=1900
DGENRE=Blues
TTITLE0=Lowdown Brown - Mud Alley
TTITLE1=Big Al Bettis - Dynaflow
TTITLE2=Floyd's Guitar Blues - Little Junior One Hand
TTITLE3=Johnny Winter - Hook You
TTITLE4=Clarence Green - Blue Billie Blues
TTITLE5=Royal Earl - Talking Guitar Part 1
TTITLE6=Royal Earl - Talking Guitar Part 2
TTITLE7=D.C. Bender and  Big Son Tillis - Cold Blues
TTITLE8=Johnny Winter - Sloppy Drunk
TTITLE9=The Sheetrockers - Night Owl
TTITLE10=Little Joe - Little Joe's Cut Out
TTITLE11=Houston Guitar Slim - Things That I Used To Do
TTITLE12=Johnny Copeland - Travelling Man
TTITLE13=Big Al Betis - Congo Mongo
EXTD=
EXTT0=
EXTT1=
EXTT2=
EXTT3=
EXTT4=
EXTT5=
EXTT6=
EXTT7=
EXTT8=
EXTT9=
EXTT10=
EXTT11=
EXTT12=
EXTT13=
PLAYORDER=
